<?xml version="1.0" encoding="utf-8"?>
<!DOCTYPE svg PUBLIC "-//W3C//DTD SVG 20010904//EN" "http://www.w3.org/TR/2001/REC-SVG-20010904/DTD/svg10.dtd">
<svg height="1024.000000pt" preserveAspectRatio="xMidYMid meet" version="1.0" viewBox="0 0 1024.000000 1024.000000" width="1024.000000pt" xmlns="http://www.w3.org/2000/svg">
<g fill="#000000" stroke="none" transform="translate(0.000000,1024.000000) scale(0.100000,-0.100000)">
<path d="M5197 8343 c-3 -81 -5 -148 -4 -149 1 -1 45 -4 98 -8 87 -6 97 -4 101 11 9 34 -2 43 -55 43 -63 0 -81 10 -72 39 5 18 14 21 56 21 48 0 49 1 49 30 0 29 -1 30 -51 30 l-50 0 3 37 3 38 45 -3 c25 -2 52 -5 61 -8 12 -3 18 3 21 26 3 16 2 32 0 35 -3 3 -49 5 -102 5 l-97 0 -6 -147z" style="fill:red;"/>
<path d="M4911 8466 c-28 -16 -50 -52 -51 -84 0 -32 61 -92 92 -92 13 0 33 -6 43 -14 16 -12 17 -16 6 -30 -17 -20 -34 -20 -72 0 -28 14 -32 14 -50 -2 -10 -9 -19 -20 -19 -24 0 -15 72 -41 112 -42 35 0 47 5 70 31 38 42 37 82 -2 114 -16 14 -43 28 -59 32 -16 3 -35 13 -42 21 -18 21 8 47 40 41 57 -12 64 -11 75 6 27 43 -83 76 -143 43z" style="fill:red;"/>
<path d="M5545 8438 c-18 -109 -35 -225 -35 -240 0 -29 58 -24 65 5 8 35 36 250 33 252 -7 5 -47 25 -51 25 -2 0 -8 -19 -12 -42z" style="fill:red;"/>
<path d="M5713 8408 c4 -24 9 -83 12 -133 9 -126 9 -125 58 -124 l42 0 63 126 c35 68 62 126 60 128 -2 2 -16 5 -31 7 -26 3 -31 -3 -70 -79 -23 -45 -45 -82 -48 -83 -4 0 -10 41 -14 91 -6 84 -8 91 -31 100 -42 15 -47 12 -41 -33z" style="fill:red;"/>
<path d="M4600 8431 c-21 -6 -26 -15 -34 -64 -4 -31 -11 -57 -15 -57 -4 0 -24 22 -44 49 -37 48 -38 49 -72 38 l-34 -10 39 -46 c51 -61 107 -152 116 -186 6 -25 9 -26 43 -20 20 4 37 8 39 9 1 2 -5 19 -13 39 -17 41 -19 85 -6 119 14 36 25 138 15 137 -5 -1 -20 -4 -34 -8z" style="fill:red;"/>
<path d="M6073 8355 c-51 -36 -92 -151 -78 -221 8 -43 53 -74 108 -74 50 0 86 36 115 113 38 100 25 157 -41 185 -38 16 -78 15 -104 -3z m88 -60 c14 -13 15 -23 8 -57 -19 -83 -56 -126 -92 -107 -41 24 3 179 51 179 8 0 23 -7 33 -15z" style="fill:red;"/>
<path d="M4160 8273 c-8 -3 -34 -13 -57 -24 -24 -10 -48 -19 -54 -19 -6 0 -9 -3 -7 -7 31 -61 108 -227 108 -232 0 -3 7 -14 14 -24 12 -15 18 -17 36 -7 22 12 22 21 4 83 -9 30 23 19 54 -19 l29 -35 37 17 c20 10 36 20 36 23 -1 3 -21 21 -45 39 l-45 33 16 31 c40 78 -42 170 -126 141z m60 -72 c14 -26 -3 -67 -30 -76 -26 -8 -34 -1 -48 41 -9 28 -8 33 11 42 34 16 55 14 67 -7z" style="fill:red;"/>
<path d="M6386 8228 c-3 -18 -27 -76 -52 -128 -42 -88 -44 -95 -28 -107 30 -22 52 -16 59 17 4 17 12 30 20 30 23 0 37 -28 30 -60 -8 -35 7 -60 35 -60 18 0 30 26 30 65 0 15 10 25 34 33 41 15 62 45 64 93 4 56 -32 100 -103 126 -79 29 -82 28 -89 -9z m117 -80 c21 -25 21 -32 0 -53 -11 -12 -25 -15 -47 -11 -43 9 -46 16 -29 59 13 31 19 37 37 31 11 -3 29 -15 39 -26z" style="fill:red;"/>
<path d="M3777 8093 c-24 -12 -28 -20 -23 -42 3 -14 13 -78 21 -141 9 -63 18 -116 20 -118 6 -6 65 19 65 27 0 4 -5 12 -11 18 -8 8 2 20 36 43 l48 33 16 -22 c15 -19 19 -20 49 -9 17 7 32 15 32 19 0 3 -19 24 -42 46 -124 117 -175 163 -179 162 -2 -1 -17 -8 -32 -16z m76 -119 c20 -27 17 -40 -6 -31 -14 5 -30 57 -18 57 3 0 14 -12 24 -26z" style="fill:red;"/>
<path d="M6716 8044 c-9 -20 -44 -75 -78 -122 l-60 -85 23 -19 c13 -10 50 -37 82 -59 l57 -40 12 26 c11 24 9 29 -32 64 -43 37 -44 40 -31 64 l14 26 36 -29 c42 -35 56 -37 71 -11 8 16 3 25 -33 55 -39 33 -41 36 -25 52 15 16 20 14 67 -26 52 -44 72 -46 90 -13 8 16 -3 28 -76 83 -48 36 -89 66 -93 68 -3 1 -14 -14 -24 -34z" style="fill:red;"/>
<path d="M7440 8025 c-11 -13 -10 -23 0 -56 11 -33 11 -42 1 -48 -10 -7 -11 -13 -1 -30 13 -25 42 -21 75 10 29 28 27 95 -4 120 -28 23 -54 24 -71 4z" style="fill:red;"/>
<path d="M2776 7999 c-26 -31 -30 -44 -26 -89 3 -37 17 -59 53 -80 67 -41 181 -13 260 65 40 40 46 65 21 89 -23 23 -51 19 -70 -9 -24 -37 -94 -75 -137 -75 -34 0 -37 2 -37 30 0 23 5 30 19 30 29 0 45 25 31 49 -18 34 -82 29 -114 -10z" style="fill:red;"/>
<path d="M5310 7980 c-117 -10 -275 -31 -410 -55 -69 -12 -388 -108 -485 -145 -366 -140 -695 -351 -756 -484 -39 -85 -13 -173 59 -203 68 -28 205 -1 409 81 59 24 176 72 258 105 389 159 644 216 1015 228 155 4 218 2 308 -11 213 -32 456 -137 551 -240 28 -29 62 -34 85 -10 24 24 19 49 -16 90 -98 112 -384 233 -618 264 -136 17 -481 12 -610 -9 -161 -27 -349 -74 -525 -131 -146 -47 -185 -61 -463 -176 -211 -86 -333 -106 -340 -56 -9 59 27 98 193 209 316 213 829 393 1245 435 156 15 449 15 555 -1 236 -35 517 -138 593 -217 13 -13 29 -24 36 -24 18 0 78 42 84 58 11 36 -167 143 -328 196 -118 39 -259 73 -330 80 -36 4 -81 9 -100 11 -65 9 -324 12 -410 5z" style="fill:red;"/>
<path d="M3484 7956 c-42 -18 -64 -52 -64 -97 0 -30 7 -43 32 -64 33 -28 46 -29 136 -10 28 7 32 5 32 -13 0 -30 -55 -58 -86 -44 -17 9 -27 7 -42 -6 -22 -20 -18 -42 8 -42 11 0 30 -5 44 -11 21 -10 33 -8 73 12 39 19 50 31 61 63 11 34 10 43 -5 75 -24 47 -57 59 -124 42 -62 -16 -82 -4 -49 29 16 16 28 20 51 15 24 -6 29 -3 29 13 0 38 -49 58 -96 38z" style="fill:red;"/>
<path d="M7612 7799 c-135 -63 -397 -98 -517 -69 -50 12 -57 12 -75 -5 -26 -23 -25 -47 1 -71 34 -30 269 -33 409 -4 187 38 310 101 293 148 -15 39 -29 39 -111 1z" style="fill:red;"/>
<path d="M8720 7799 c-30 -11 -132 -41 -225 -67 -130 -36 -179 -46 -205 -40 -40 8 -118 -7 -140 -27 -8 -7 -60 -25 -115 -39 -55 -14 -131 -35 -170 -46 -38 -11 -91 -20 -117 -20 -65 0 -125 -26 -144 -61 -14 -28 -17 -29 -92 -29 -77 0 -176 -20 -327 -65 -150 -45 -370 -103 -429 -114 -70 -13 -93 -31 -102 -80 -9 -51 -9 -51 -61 -35 -129 39 -306 0 -420 -92 -39 -32 -42 -33 -70 -19 -41 21 -90 18 -158 -11 -76 -32 -163 -57 -175 -49 -6 3 -10 14 -10 23 0 37 -63 146 -115 201 -162 170 -431 202 -740 90 -88 -32 -317 -145 -445 -219 -179 -104 -353 -178 -482 -204 -95 -20 -226 -20 -294 -2 -48 13 -164 66 -190 87 -6 5 -16 28 -23 51 -20 67 -87 189 -139 253 -106 132 -310 263 -477 306 -115 30 -315 37 -426 15 -246 -50 -451 -164 -618 -342 -205 -220 -316 -492 -328 -807 -6 -164 4 -254 44 -380 l24 -79 -53 -56 c-99 -104 -192 -264 -244 -419 -21 -63 -25 -91 -22 -144 9 -117 75 -226 173 -283 96 -56 239 -80 330 -55 28 8 40 8 43 0 2 -6 77 -73 166 -150 279 -239 392 -359 432 -459 l15 -37 -36 42 c-48 56 -124 111 -188 135 -52 20 -157 26 -212 12 -19 -5 -25 -2 -25 11 0 35 -56 127 -105 174 -69 65 -138 99 -229 111 -227 32 -441 -108 -536 -350 -28 -70 -50 -207 -50 -305 0 -530 451 -1075 995 -1201 91 -21 300 -21 420 0 93 16 195 53 294 107 50 27 57 28 66 13 87 -143 212 -247 370 -308 74 -28 89 -30 205 -30 109 0 131 3 171 22 69 34 95 68 140 183 22 57 58 134 79 171 98 165 344 438 515 572 85 67 220 151 375 234 289 154 836 346 1160 407 268 50 609 47 779 -6 20 -6 81 -32 136 -57 67 -31 117 -47 154 -50 35 -3 69 -13 91 -28 42 -28 217 -86 321 -108 398 -81 823 -22 1120 154 159 95 305 236 419 407 109 163 166 298 212 503 l23 105 3 933 c2 700 6 932 14 932 26 0 87 54 111 98 38 69 43 120 22 199 -23 84 -84 152 -162 179 -39 14 -53 24 -58 43 -17 67 -94 122 -169 120 -23 0 -66 -9 -96 -20z m90 -194 c0 -2 -30 -22 -67 -44 -75 -43 -140 -101 -153 -136 -5 -13 -10 -131 -11 -264 -1 -144 -6 -241 -12 -241 -5 0 -4 -7 3 -15 14 -17 4 -39 -16 -31 -8 3 -14 2 -14 -3 0 -5 9 -11 21 -14 12 -3 18 -10 14 -17 -5 -8 -14 -7 -31 4 -33 23 -44 19 -14 -4 14 -11 32 -20 40 -20 12 -1 12 -3 -3 -14 -16 -12 -16 -14 -2 -20 9 -3 14 -10 10 -15 -3 -6 -12 -8 -20 -4 -8 3 -15 0 -15 -6 0 -6 7 -11 15 -11 8 0 15 -4 15 -10 0 -14 -16 -12 -53 5 -27 13 -29 13 -13 1 21 -17 13 -38 -12 -30 -16 5 -16 5 1 -6 21 -14 23 -45 2 -36 -22 8 -18 -2 5 -14 11 -6 20 -7 19 -3 -1 4 -1 14 0 22 1 11 4 11 18 0 9 -8 18 -13 20 -11 8 6 23 1 23 -8 0 -6 -11 -8 -25 -4 -19 5 -25 2 -25 -10 0 -10 6 -13 16 -9 9 3 20 0 25 -8 11 -17 12 -39 1 -24 -9 13 -82 39 -89 32 -3 -3 9 -13 26 -22 17 -8 31 -13 31 -10 0 3 10 -4 22 -15 19 -18 21 -22 8 -31 -8 -5 -25 -8 -37 -7 -12 2 -22 -1 -22 -7 0 -5 17 -9 39 -8 23 1 38 -3 34 -8 -3 -5 -10 -7 -15 -4 -8 6 -11 -2 -8 -21 0 -4 -5 -11 -13 -15 -11 -7 -10 -11 2 -18 8 -6 12 -13 8 -16 -3 -3 -12 0 -20 7 -26 25 -57 38 -63 28 -3 -6 1 -10 9 -10 9 0 16 -4 16 -10 0 -5 -4 -10 -10 -10 -5 0 -10 -5 -10 -12 0 -6 8 -4 19 6 17 16 19 16 26 -1 4 -10 9 -26 10 -35 1 -10 4 -19 6 -21 2 -2 15 -11 29 -20 21 -15 22 -17 5 -17 -15 0 -16 -3 -7 -12 7 -7 12 -16 12 -21 0 -5 -7 -2 -15 7 -8 8 -12 22 -9 30 3 9 2 16 -2 16 -5 0 -18 7 -28 15 -16 12 -17 17 -6 30 16 20 3 20 -17 0 -14 -14 -13 -18 11 -38 30 -27 34 -42 7 -27 -25 13 -41 13 -41 0 0 -5 7 -7 15 -4 24 9 17 -12 -7 -25 -15 -8 -16 -10 -4 -6 11 3 24 -2 32 -12 12 -16 13 -16 14 -1 0 9 -6 19 -12 21 -8 3 -6 6 5 6 12 1 17 -7 19 -26 2 -39 1 -45 -7 -68 -5 -13 -4 -16 2 -7 17 23 41 3 40 -34 -1 -32 -17 -51 -17 -19 0 8 -4 15 -10 15 -17 0 -11 -18 12 -34 18 -13 19 -18 8 -31 -8 -10 -9 -15 -1 -15 6 0 11 -4 11 -10 0 -5 -6 -7 -14 -4 -8 3 -17 0 -22 -7 -4 -7 -3 -10 3 -6 12 8 30 -12 27 -30 -1 -7 -2 -18 -3 -23 0 -6 -11 -9 -23 -7 -13 2 -18 2 -12 0 7 -2 14 -12 17 -23 3 -14 0 -17 -12 -13 -12 3 -11 1 3 -7 14 -10 20 -9 27 1 6 9 8 -15 7 -64 -2 -59 -6 -74 -14 -62 -13 17 -29 21 -19 5 4 -6 1 -19 -7 -28 -12 -15 -11 -16 4 -4 15 12 17 7 24 -44 12 -97 -2 -319 -27 -426 -13 -57 -26 -95 -32 -91 -6 3 -7 1 -3 -6 9 -14 -12 -81 -25 -81 -5 0 -9 -9 -9 -20 0 -11 -4 -20 -10 -20 -5 0 -10 5 -10 12 0 6 -3 9 -6 6 -3 -4 -1 -15 5 -27 8 -14 8 -22 -1 -27 -7 -4 -8 -3 -4 5 4 6 0 14 -8 17 -9 3 -13 10 -10 15 3 5 -2 9 -10 9 -9 0 -16 5 -16 10 0 6 5 10 12 10 6 0 8 3 4 8 -4 4 -13 7 -19 7 -7 0 -12 9 -12 20 0 14 8 21 28 23 19 2 27 9 27 22 0 15 -6 19 -30 17 -16 -1 -30 -6 -30 -11 0 -5 -2 -7 -5 -4 -3 3 1 34 9 69 28 123 30 177 27 628 -2 371 0 455 11 462 10 7 10 9 1 9 -7 0 -13 8 -13 18 0 14 -2 15 -10 2 -6 -10 -10 -11 -10 -2 0 6 -5 12 -11 12 -5 0 -7 -4 -4 -10 3 -5 1 -10 -6 -10 -6 0 -9 -8 -6 -19 3 -15 1 -18 -11 -14 -9 4 -13 2 -9 -4 12 -19 -4 -44 -23 -38 -9 3 -23 -1 -30 -10 -7 -9 -8 -15 -2 -15 6 0 12 6 15 13 2 6 7 9 11 6 3 -3 4 -13 1 -22 -5 -12 -13 -13 -35 -7 -24 7 -28 6 -22 -8 4 -14 3 -15 -9 -6 -8 6 -33 10 -56 9 -38 -1 -42 1 -39 19 2 17 9 20 37 18 57 -5 98 31 147 130 66 131 74 194 70 574 l-3 316 -33 29 c-18 16 -39 29 -47 29 -19 0 -19 24 -1 39 8 7 113 38 233 70 212 57 253 66 253 56z m-620 -143 c0 -5 -11 -14 -25 -20 -36 -17 -114 -91 -132 -126 -29 -57 -32 -90 -33 -357 -1 -223 -4 -268 -16 -273 -8 -3 -14 -10 -14 -15 0 -6 7 -8 15 -5 8 4 15 1 15 -5 0 -6 -9 -11 -21 -11 -11 0 -18 -4 -15 -9 3 -5 16 -7 28 -3 14 3 19 2 14 -6 -4 -7 -13 -12 -21 -12 -8 0 -17 -5 -21 -12 -5 -8 0 -9 15 -5 14 3 21 1 18 -6 -2 -7 -13 -13 -25 -15 -12 -2 -20 -8 -17 -13 4 -5 18 -6 33 -3 15 4 24 4 20 0 -3 -4 -8 -6 -11 -4 -2 1 -12 -4 -22 -12 -14 -11 -19 -12 -22 -2 -3 6 -9 12 -14 12 -4 0 -6 -7 -3 -15 4 -8 1 -15 -6 -15 -6 0 -8 -5 -4 -11 4 -8 9 -8 17 0 6 6 25 11 41 11 l31 -1 -34 -14 c-18 -8 -43 -15 -55 -16 -20 0 -20 -1 -1 -8 11 -5 30 -5 43 0 13 5 22 5 22 -1 0 -6 -7 -10 -15 -10 -8 0 -15 -5 -15 -11 0 -6 -7 -9 -15 -5 -9 3 -15 0 -15 -9 0 -9 6 -12 15 -9 8 4 15 1 15 -5 0 -6 -6 -11 -13 -11 -7 0 -13 -10 -14 -22 -2 -20 -1 -21 8 -5 10 18 49 24 49 7 0 -5 -6 -7 -14 -4 -17 6 -31 -12 -16 -21 6 -4 8 -10 5 -15 -3 -5 -1 -18 5 -29 8 -16 5 -27 -15 -57 -14 -20 -22 -40 -19 -45 3 -5 -2 -6 -11 -3 -9 4 -24 23 -34 43 -40 78 -45 140 -46 548 0 381 -1 392 -21 420 -11 15 -35 37 -52 48 -62 40 -49 49 148 99 74 19 164 43 200 54 36 11 66 21 68 21 1 1 2 -3 2 -7z m-5414 -52 c168 -42 347 -160 352 -231 3 -50 11 -86 38 -165 32 -97 46 -232 34 -328 -43 -340 -301 -648 -552 -660 -113 -5 -110 -5 -102 -18 5 -10 4 -10 -6 -1 -7 7 -22 8 -39 3 -15 -4 -35 -3 -44 2 -10 5 -17 5 -17 1 0 -5 -9 -9 -20 -9 -11 0 -20 3 -20 7 0 4 -18 10 -40 14 -22 4 -40 11 -40 16 0 5 -3 8 -7 7 -16 -4 -82 44 -88 63 -4 10 -11 19 -16 19 -5 0 -9 4 -9 9 0 5 22 -1 48 -14 116 -56 241 -70 357 -40 198 52 402 274 460 500 38 150 25 326 -32 439 -37 73 -129 161 -205 195 -96 43 -115 52 -95 46 60 -17 67 -17 61 -2 -9 25 -92 48 -189 54 -73 4 -108 1 -175 -16 -229 -58 -385 -184 -490 -396 -50 -101 -69 -174 -77 -302 -5 -92 -8 -102 -28 -111 -40 -18 -70 -127 -70 -254 -1 -107 -8 -136 -26 -108 -44 69 -60 274 -35 446 25 173 80 317 169 449 203 299 590 464 903 385z m4767 -141 c41 -11 117 -73 117 -95 0 -8 -10 -4 -26 11 -22 20 -28 22 -39 11 -12 -11 -11 -22 1 -62 17 -54 14 -174 -7 -231 -6 -18 -12 -33 -12 -33 -1 0 -24 11 -51 25 -27 14 -55 25 -63 25 -9 0 -13 16 -13 58 0 71 -19 102 -61 102 -65 0 -137 -67 -222 -208 -70 -116 -86 -169 -88 -300 -1 -61 2 -115 5 -121 4 -6 -1 -12 -11 -12 -17 -1 -17 -2 0 -6 9 -2 17 -9 17 -14 0 -5 -8 -10 -17 -10 -17 -1 -17 -2 0 -6 9 -2 17 -9 17 -15 0 -6 -8 -8 -17 -6 -15 4 -19 -3 -21 -39 -3 -44 1 -48 42 -43 10 1 15 -3 12 -8 -3 -6 -20 -9 -36 -8 -18 1 -36 -4 -43 -13 -10 -14 -10 -14 3 -4 10 8 21 9 30 3 12 -8 12 -10 1 -10 -10 0 -11 -3 -2 -14 9 -11 9 -15 -1 -19 -10 -4 -10 -8 2 -17 11 -8 12 -13 3 -16 -7 -3 -10 -11 -7 -19 3 -8 -3 -16 -16 -20 -12 -4 -19 -13 -18 -23 2 -9 -3 -16 -9 -15 -7 2 -13 -2 -13 -8 0 -7 7 -8 18 -4 9 4 23 9 30 12 22 9 13 -14 -10 -26 -13 -6 -15 -9 -6 -7 25 7 32 -11 8 -19 -11 -3 -20 -11 -20 -16 0 -13 18 -11 22 3 3 9 6 9 12 0 4 -8 -2 -16 -18 -22 -33 -12 -34 -24 -1 -16 14 4 25 2 25 -4 0 -5 -11 -12 -25 -16 -14 -3 -22 -11 -19 -16 4 -6 10 -6 17 1 13 13 27 14 27 2 0 -5 -9 -13 -20 -16 -11 -3 -20 -11 -20 -16 0 -6 9 -7 20 -4 25 8 26 -3 3 -21 -16 -12 -15 -13 12 -9 l30 5 -29 -16 c-16 -9 -24 -19 -19 -23 15 -9 25 -61 13 -61 -6 0 -8 -12 -5 -27 5 -25 4 -25 -4 -6 -12 26 -51 21 -58 -8 -3 -10 -11 -20 -18 -23 -10 -3 -12 0 -8 11 4 11 2 14 -5 9 -13 -8 -15 93 -20 758 -3 472 -3 468 -65 506 -18 11 -36 21 -41 23 -5 2 -4 12 2 22 7 14 37 27 99 44 48 13 133 37 188 52 55 16 104 29 109 29 5 0 -9 -13 -31 -29 -42 -31 -69 -63 -98 -120 -13 -27 -15 -47 -10 -102 l7 -69 67 112 c77 129 160 219 234 254 57 26 92 29 150 13z m-2227 -80 c106 -19 184 -76 214 -154 6 -16 8 -26 4 -22 -10 10 -33 -24 -34 -50 0 -38 -31 -102 -52 -109 -33 -10 -44 10 -31 58 14 52 3 78 -46 112 -53 37 -85 46 -158 46 -122 0 -239 -43 -473 -173 -210 -117 -409 -210 -540 -252 -134 -43 -275 -64 -323 -48 -18 6 -52 11 -77 12 -68 1 -116 11 -173 35 -86 36 -137 66 -137 80 0 10 19 8 89 -10 266 -69 497 -27 864 158 55 27 118 61 139 74 82 52 367 192 435 213 120 38 206 47 299 30z m-2601 -198 c46 -21 101 -64 116 -93 8 -15 8 -19 0 -13 -7 4 -18 2 -26 -5 -9 -7 -15 -8 -20 0 -16 26 -23 6 -10 -31 31 -87 12 -189 -46 -241 -25 -22 -38 -26 -71 -23 -23 2 -45 8 -50 13 -16 16 3 42 32 42 20 0 35 9 49 28 30 42 34 73 16 123 -8 24 -17 48 -18 54 -7 33 -77 65 -139 65 -89 -1 -185 -71 -259 -189 -41 -65 -55 -81 -73 -81 -17 0 3 85 38 154 55 111 135 181 244 212 58 17 161 10 217 -15z m3879 -35 c59 -29 121 -92 128 -130 5 -23 4 -23 -26 -7 -16 9 -38 25 -47 36 -14 17 -14 10 4 -55 17 -63 20 -108 21 -277 1 -196 2 -203 21 -204 17 -1 17 -2 3 -6 -19 -5 -25 -23 -8 -23 6 0 10 -4 10 -10 0 -5 -7 -7 -16 -3 -9 3 -20 0 -25 -8 -6 -11 -11 -11 -21 -1 -6 6 -16 12 -22 12 -5 0 1 -8 12 -19 28 -24 28 -34 0 -25 l-23 7 20 -22 c11 -13 21 -18 23 -12 4 12 32 15 32 3 0 -4 -13 -13 -30 -20 -29 -13 -41 -32 -20 -32 6 0 10 -4 10 -10 0 -17 -21 -11 -39 12 -12 15 -20 18 -25 10 -4 -7 0 -12 10 -12 10 0 15 -3 11 -6 -3 -4 1 -14 10 -23 15 -15 15 -16 0 -19 -9 -2 -17 -8 -17 -13 0 -6 9 -8 19 -4 11 3 22 1 26 -5 3 -6 -3 -10 -16 -10 -18 0 -19 -2 -9 -15 10 -12 10 -15 -4 -15 -9 0 -16 5 -16 12 0 6 -2 9 -5 6 -12 -12 9 -39 26 -35 11 3 19 1 19 -4 0 -5 -7 -9 -15 -9 -8 0 -15 -4 -15 -10 0 -5 5 -10 10 -10 6 0 10 -5 10 -11 0 -6 -6 -9 -14 -6 -8 3 -22 -3 -32 -14 -10 -11 -12 -19 -6 -19 7 0 12 5 12 10 0 6 5 10 10 10 7 0 7 -7 -1 -21 -8 -16 -8 -23 1 -29 8 -5 3 -16 -14 -37 -28 -33 -32 -43 -17 -43 5 0 13 9 16 20 6 20 35 28 35 10 0 -5 -5 -9 -11 -7 -6 1 -14 -4 -16 -10 -3 -7 0 -13 7 -13 7 0 8 -6 1 -19 -6 -10 -7 -22 -3 -26 4 -5 1 -5 -6 -1 -7 4 -10 16 -7 27 5 14 3 17 -9 13 -18 -7 -21 -20 -7 -28 5 -3 11 -15 14 -27 5 -20 5 -20 -15 -2 -21 18 -21 18 -14 -19 4 -21 2 -39 -4 -43 -5 -3 -7 0 -4 8 3 8 1 18 -4 21 -5 3 -12 -5 -14 -19 -3 -14 -1 -25 4 -25 5 0 2 -7 -6 -16 -9 -8 -14 -21 -10 -27 3 -7 -1 -4 -9 6 -11 13 -16 15 -20 5 -2 -7 -8 -9 -13 -5 -10 10 10 43 25 40 6 -2 8 4 4 14 -5 12 -3 14 7 8 8 -5 11 -4 7 2 -4 6 0 30 8 54 13 36 16 112 15 465 0 233 -3 437 -7 454 -8 44 -61 97 -104 105 -112 21 -220 -81 -249 -234 -5 -30 -10 -160 -9 -290 1 -344 1 -341 -16 -341 -8 0 -15 -4 -15 -10 0 -5 7 -10 15 -10 8 0 15 -4 15 -10 0 -5 -7 -7 -15 -4 -21 8 -19 -13 3 -26 15 -9 14 -10 -5 -5 -18 5 -22 3 -17 -9 3 -8 13 -17 22 -20 10 -3 -8 -4 -38 -1 -32 2 -47 0 -35 -4 14 -6 20 -17 20 -41 0 -18 5 -35 12 -37 7 -3 11 6 10 24 -1 15 1 29 6 31 4 1 7 0 7 -3 0 -3 0 -21 0 -40 0 -27 -3 -33 -16 -28 -10 4 -15 1 -14 -8 5 -33 0 -39 -24 -29 -20 7 -23 6 -19 -8 3 -12 -2 -18 -16 -19 -31 -3 -36 54 -36 432 0 320 2 345 23 430 54 212 179 371 340 432 57 21 160 11 226 -21z m-637 -156 c-56 -52 -84 -88 -106 -133 -29 -59 -75 -246 -135 -539 -38 -186 -104 -469 -110 -476 -3 -3 -6 0 -6 6 0 7 -9 12 -20 12 -11 0 -20 5 -20 12 0 6 3 8 6 5 10 -9 44 12 43 26 0 9 -2 9 -6 0 -7 -18 -43 -16 -43 2 0 34 45 288 96 543 30 150 54 292 54 316 0 50 -32 104 -73 124 -58 28 -34 43 150 95 89 25 175 53 190 61 61 33 53 13 -20 -54z m1503 17 c36 -18 62 -74 54 -117 -9 -51 -32 -89 -61 -103 -23 -10 -28 -8 -49 16 -28 33 -31 82 -8 115 22 31 1 28 -52 -9 -54 -37 -133 -147 -163 -226 -12 -32 -28 -70 -36 -85 -10 -20 -10 -29 -1 -38 9 -10 6 -10 -11 -1 -15 8 -20 17 -16 28 4 11 2 14 -5 9 -14 -8 10 74 45 159 33 79 103 184 153 229 33 30 48 36 83 36 23 0 53 -6 67 -13z m1107 -114 c-7 -8 -21 -11 -30 -7 -27 10 -19 23 14 22 26 -1 28 -3 16 -15z m-3163 -35 c-53 -40 -101 -95 -124 -142 -26 -54 -27 -42 27 -336 19 -107 37 -226 39 -264 4 -58 9 -73 30 -93 14 -12 22 -23 18 -23 -4 0 -16 7 -26 17 -12 11 -18 12 -18 4 0 -7 10 -21 23 -32 12 -10 16 -18 10 -19 -7 0 -13 5 -13 11 0 5 -5 7 -10 4 -8 -5 -8 -11 0 -20 9 -10 7 -15 -7 -18 -10 -2 -6 -4 8 -3 21 2 25 -2 21 -17 -4 -14 -7 -16 -13 -5 -6 9 -9 9 -9 1 0 -7 7 -16 16 -21 21 -12 9 -33 -12 -25 -14 5 -15 3 -4 -16 11 -22 12 -22 25 -4 11 15 16 16 27 5 11 -11 10 -12 -4 -7 -20 8 -22 2 -8 -25 8 -15 6 -17 -8 -14 -21 5 -50 -12 -39 -23 5 -4 11 -3 15 3 4 6 18 7 32 3 18 -5 20 -7 6 -8 -14 -1 -17 -6 -13 -23 5 -20 4 -21 -6 -7 -7 9 -24 17 -39 17 -23 0 -25 -2 -13 -15 18 -17 9 -48 -10 -33 -10 8 -13 6 -11 -7 0 -10 6 -21 11 -25 6 -5 5 -8 -2 -8 -7 0 -13 -10 -14 -22 -1 -33 -38 133 -119 542 -39 195 -76 371 -82 390 -11 38 -54 90 -74 90 -6 0 -18 10 -26 21 -14 21 -15 21 -51 4 -47 -22 -113 -94 -138 -150 -11 -24 -38 -137 -60 -252 -32 -168 -81 -400 -156 -750 l-5 -23 -27 23 c-26 21 -27 24 -19 92 5 38 27 167 49 285 42 221 61 328 80 461 10 67 9 81 -7 114 -10 21 -33 47 -51 57 -35 21 -41 39 -20 56 14 12 259 90 437 139 68 19 183 53 255 77 71 24 132 41 134 40 2 -2 -9 -14 -25 -26z m2581 -218 c3 -5 2 -10 -4 -10 -5 0 -13 5 -16 10 -3 6 -2 10 4 10 5 0 13 -4 16 -10z m-5447 -82 c20 -12 61 -27 91 -33 l55 -11 -94 -22 c-51 -12 -102 -30 -112 -39 -17 -15 -19 -15 -39 3 -11 10 -59 28 -107 40 l-87 21 50 7 c69 11 123 41 147 82 l21 36 19 -31 c11 -17 36 -40 56 -53z m6032 57 c-7 -9 -15 -13 -19 -10 -3 3 1 10 9 15 21 14 24 12 10 -5z m-4151 -42 c-54 -38 -140 -128 -160 -169 -24 -51 -25 -40 31 -324 45 -227 58 -330 41 -330 -6 0 -11 -5 -11 -11 0 -7 9 -9 21 -6 16 4 19 3 11 -5 -8 -8 -9 -15 -1 -25 7 -7 8 -13 4 -13 -4 0 -14 8 -22 18 -12 15 -13 14 -7 -12 6 -26 5 -27 -14 -17 -30 16 -41 13 -12 -4 14 -8 34 -11 45 -8 18 5 18 4 3 -11 -19 -18 -38 -21 -38 -6 0 6 -4 10 -9 10 -6 0 -6 -12 -1 -29 4 -16 6 -32 3 -34 -3 -3 -1 -13 5 -23 6 -11 11 -13 16 -5 4 6 2 11 -3 11 -6 0 -11 4 -11 8 0 5 14 7 30 4 27 -4 44 -22 20 -22 -18 0 -50 -39 -44 -55 4 -8 1 -15 -5 -15 -6 0 -11 -5 -11 -11 0 -5 4 -8 9 -5 11 7 20 -14 13 -31 -5 -15 -42 -17 -42 -3 0 6 10 10 23 11 21 0 21 1 2 8 -11 5 -24 6 -29 3 -4 -2 -5 6 -1 18 4 14 3 20 -3 16 -5 -3 -15 20 -21 52 -7 31 -32 154 -56 272 -91 445 -122 537 -196 575 -61 32 -40 45 176 108 105 31 206 62 225 70 42 18 53 13 19 -10z m3568 -15 c-3 -8 -6 -5 -6 6 -1 11 2 17 5 13 3 -3 4 -12 1 -19z m-873 -4 c9 -3 13 -10 10 -16 -3 -5 -11 -4 -20 3 -10 8 -14 8 -14 0 0 -6 -7 -11 -15 -11 -21 0 -19 18 3 23 9 3 18 5 19 6 1 0 8 -2 17 -5z m2 -51 c-7 -7 -26 7 -26 19 0 6 6 6 15 -2 9 -7 13 -15 11 -17z m-3383 -17 c67 -22 87 -33 87 -47 0 -29 -15 -31 -92 -9 -40 11 -83 20 -95 20 -16 0 -23 6 -23 19 0 29 11 52 24 49 6 -2 50 -16 99 -32z m3347 24 c0 -5 -4 -10 -10 -10 -5 0 -10 5 -10 10 0 6 5 10 10 10 6 0 10 -4 10 -10z m1496 -43 c1 -14 -3 -24 -7 -21 -4 2 -5 12 -2 20 3 9 0 20 -8 26 -12 8 -11 9 1 5 8 -2 15 -16 16 -30z m-1471 -17 c3 -5 -1 -10 -9 -10 -9 0 -16 5 -16 10 0 6 4 10 9 10 6 0 13 -4 16 -10z m-420 -10 c3 -5 2 -10 -4 -10 -5 0 -13 5 -16 10 -3 6 -2 10 4 10 5 0 13 -4 16 -10z m422 -26 c-3 -3 -12 -4 -19 -1 -8 3 -5 6 6 6 11 1 17 -2 13 -5z m-407 -38 c0 -3 -4 -8 -10 -11 -5 -3 -10 -1 -10 4 0 6 5 11 10 11 6 0 10 -2 10 -4z m-30 -10 c0 -11 -19 -15 -25 -6 -3 5 1 10 9 10 9 0 16 -2 16 -4z m425 -6 c3 -5 1 -10 -4 -10 -6 0 -11 5 -11 10 0 6 2 10 4 10 3 0 8 -4 11 -10z m640 -62 c102 -165 235 -246 430 -264 l75 -7 0 -53 c0 -30 -3 -54 -6 -54 -3 0 -18 8 -32 19 -93 65 -224 99 -339 87 -79 -8 -201 -46 -270 -85 l-53 -29 0 219 0 220 43 -6 c23 -3 56 -1 72 4 17 5 33 10 36 10 3 1 23 -27 44 -61z m-1048 36 c-3 -3 -12 -4 -19 -1 -8 3 -5 6 6 6 11 1 17 -2 13 -5z m378 -4 c3 -5 -3 -10 -15 -10 -12 0 -18 5 -15 10 3 6 10 10 15 10 5 0 12 -4 15 -10z m30 0 c3 -5 1 -10 -4 -10 -6 0 -11 5 -11 10 0 6 2 10 4 10 3 0 8 -4 11 -10z m-5175 -29 c16 -31 12 -49 -22 -99 -18 -25 -43 -64 -55 -86 -14 -27 -22 -34 -23 -22 0 15 -2 16 -15 6 -9 -7 -14 -19 -11 -26 3 -7 0 -16 -5 -20 -6 -3 -8 -17 -4 -31 3 -14 2 -30 -3 -36 -5 -7 -15 -33 -22 -59 -8 -30 -17 -45 -24 -41 -6 4 -5 -1 3 -10 7 -10 9 -17 3 -17 -6 0 -9 -11 -8 -24 2 -14 -2 -27 -9 -30 -15 -5 -26 -54 -14 -61 4 -3 9 3 12 12 4 17 4 17 11 1 5 -11 2 -23 -8 -34 -10 -10 -14 -24 -11 -38 5 -19 5 -19 -5 -3 -16 25 -16 137 0 137 3 0 5 13 5 29 0 16 -3 27 -7 25 -9 -6 1 48 18 99 7 20 10 37 6 36 -4 0 -43 -60 -86 -134 -44 -74 -83 -132 -88 -129 -4 3 -12 -6 -18 -20 -5 -14 -14 -26 -19 -26 -5 0 -7 -9 -4 -20 3 -12 0 -20 -7 -20 -7 0 -10 7 -6 15 3 9 -1 18 -9 21 -8 4 -15 10 -15 16 0 5 4 6 10 3 5 -3 7 0 4 8 -7 18 67 161 139 269 30 46 97 131 147 188 51 58 97 113 103 123 15 22 24 22 37 -2z m4740 9 c0 -5 -4 -10 -9 -10 -6 0 -13 5 -16 10 -3 6 1 10 9 10 9 0 16 -4 16 -10z m-2949 -79 c26 -12 57 -33 69 -46 l22 -24 -37 5 c-21 2 -41 7 -46 10 -5 2 3 -21 18 -53 27 -62 31 -97 36 -380 1 -91 -1 -143 -8 -144 -5 0 -4 -3 3 -6 13 -5 17 -23 5 -23 -5 0 -14 4 -22 9 -12 8 -12 12 -2 25 17 21 4 21 -16 0 -13 -13 -14 -17 -3 -24 11 -7 11 -11 1 -23 -9 -12 -9 -16 1 -20 9 -4 7 -11 -9 -25 -13 -11 -23 -24 -23 -28 0 -4 5 -3 12 4 20 20 27 13 23 -23 -4 -27 0 -37 17 -49 12 -9 19 -18 15 -22 -3 -3 -13 1 -22 10 -9 9 -21 16 -26 16 -6 0 -3 -7 5 -16 18 -18 18 -17 10 -38 -3 -9 -12 -16 -19 -16 -8 0 -17 -5 -21 -11 -4 -8 0 -9 15 -4 12 4 21 2 21 -4 0 -6 -7 -11 -15 -11 -8 0 -15 -4 -15 -10 0 -5 -11 -12 -25 -16 -14 -3 -25 -10 -25 -15 0 -12 14 -11 27 2 11 11 53 -7 53 -23 0 -13 -18 -9 -22 4 -2 6 -9 8 -16 4 -11 -7 -6 -36 6 -34 18 2 32 -3 32 -12 0 -6 -9 -6 -23 -1 -15 6 -31 4 -47 -5 l-25 -14 25 1 c43 2 60 -1 60 -10 0 -5 -20 -8 -44 -7 -43 3 -44 2 -51 -30 -3 -18 -10 -36 -15 -39 -5 -3 -5 7 0 24 4 16 10 79 11 140 4 137 -1 146 -94 146 -50 0 -71 -6 -107 -27 -49 -30 -121 -93 -138 -124 -6 -10 -12 -13 -12 -7 0 27 -40 -22 -40 -49 0 -19 -5 -28 -16 -28 -12 0 -15 -6 -10 -26 5 -17 3 -23 -4 -19 -5 3 -10 14 -10 23 0 12 -3 13 -11 5 -9 -9 -8 -18 5 -37 22 -34 20 -44 -2 -16 -11 13 -24 20 -30 16 -17 -10 -15 -29 2 -23 8 3 17 -1 20 -9 3 -9 1 -12 -4 -9 -14 9 -43 -22 -34 -37 4 -7 -2 -5 -13 5 -26 22 -45 22 -61 -3 -7 -11 -8 -20 -3 -20 5 0 11 7 15 15 7 19 22 19 29 1 4 -10 1 -13 -7 -10 -17 6 -24 -12 -21 -55 2 -31 1 -32 -12 -16 -7 11 -13 15 -14 9 0 -5 -5 4 -9 19 -11 35 4 130 31 201 47 128 165 263 275 317 54 27 77 32 137 33 40 1 87 -3 105 -7 l32 -9 0 219 c0 193 -3 223 -19 260 -59 129 -245 80 -332 -89 -17 -32 -24 -65 -27 -134 -4 -82 -2 -94 16 -112 11 -11 26 -22 33 -25 11 -5 11 -9 -3 -20 -13 -10 -30 -12 -65 -7 -27 4 -50 4 -53 0 -8 -13 -35 12 -55 50 -44 83 -12 234 75 358 68 97 152 162 262 203 70 26 192 21 259 -10z m2939 19 c0 -5 -5 -10 -11 -10 -5 0 -7 5 -4 10 3 6 8 10 11 10 2 0 4 -4 4 -10z m-1215 -196 c9 3 12 0 8 -10 -7 -19 -34 1 -32 25 1 13 2 12 6 -2 3 -11 11 -16 18 -13z m-41 -10 c3 -8 2 -12 -4 -9 -6 3 -10 10 -10 16 0 14 7 11 14 -7z m-3379 -235 c28 -26 109 -92 180 -145 245 -184 437 -359 526 -480 51 -69 126 -215 134 -259 3 -16 2 -23 -1 -15 -4 8 -10 17 -14 20 -4 3 -12 14 -18 25 -8 14 -11 16 -12 5 0 -9 -10 -16 -25 -16 -25 -2 -25 -1 -10 22 14 21 14 24 0 24 -8 0 -15 -4 -15 -10 0 -5 -4 -10 -10 -10 -5 0 -10 7 -10 16 0 11 -6 14 -21 9 -19 -6 -19 -5 -7 17 7 12 18 27 23 31 6 5 0 5 -12 2 -19 -5 -23 -2 -23 14 0 13 -6 21 -16 21 -12 0 -15 7 -12 24 4 19 1 22 -15 18 -17 -4 -18 -2 -8 17 10 18 9 21 -10 21 -14 0 -19 5 -16 14 4 10 0 12 -15 8 -17 -4 -19 -1 -13 17 4 14 2 21 -7 21 -7 0 -18 10 -23 23 -6 12 -17 21 -24 19 -7 -1 -15 7 -18 18 -3 11 -11 20 -19 20 -7 0 -18 9 -24 20 -6 11 -17 20 -25 20 -8 0 -15 6 -15 14 0 8 -11 17 -25 20 -15 4 -23 11 -19 17 4 7 -1 9 -15 4 -17 -5 -20 -3 -14 11 4 12 3 15 -5 10 -7 -4 -12 -1 -12 9 0 9 -5 13 -10 10 -6 -4 -8 -11 -5 -16 4 -5 -1 -9 -11 -9 -14 0 -14 3 -4 16 11 12 10 18 -5 32 -10 9 -15 11 -11 5 4 -7 2 -13 -4 -13 -7 0 -14 9 -17 19 -3 12 -11 17 -19 14 -9 -3 -14 2 -15 13 0 11 -3 14 -6 6 -2 -6 -9 -10 -13 -7 -5 3 -7 12 -3 20 4 11 1 13 -13 8 -13 -5 -16 -3 -11 10 7 18 -18 44 -27 28 -4 -5 -2 -12 4 -16 6 -4 8 -11 4 -16 -11 -18 -36 13 -29 38 3 13 1 23 -5 23 -5 0 -10 -6 -11 -12 0 -10 -2 -10 -6 0 -2 6 -13 12 -24 12 -15 0 -17 4 -9 24 7 20 5 25 -11 29 -11 3 -19 9 -18 14 4 23 -3 24 -21 3 -11 -13 -20 -18 -20 -12 0 6 5 14 10 17 15 9 1 27 -16 21 -8 -3 -14 -1 -14 4 0 5 -7 16 -16 24 -14 15 -14 16 0 16 9 0 16 5 16 10 0 6 -12 8 -27 5 -16 -3 -22 -2 -15 1 17 8 15 27 -3 20 -8 -3 -15 -1 -15 4 0 6 5 10 11 10 5 0 7 5 4 10 -10 17 -25 11 -35 -12 -9 -23 -9 -23 -9 -1 -1 12 4 23 10 25 7 2 7 12 0 30 -20 54 13 44 84 -23z m4429 26 c-4 -8 -10 -12 -15 -9 -11 6 -2 24 11 24 5 0 7 -7 4 -15z m-4537 -27 c-3 -8 -6 -5 -6 6 -1 11 2 17 5 13 3 -3 4 -12 1 -19z m4497 6 c9 -24 2 -26 -12 -4 -7 11 -8 20 -3 20 5 0 12 -7 15 -16z m1618 -15 c54 -20 106 -59 79 -59 -7 0 -9 -5 -5 -12 4 -7 -2 -5 -13 5 -12 10 -36 19 -54 19 -19 0 -40 5 -46 11 -9 6 -13 6 -13 0 0 -6 -11 -9 -25 -8 -20 3 -24 -1 -22 -18 2 -20 -4 -23 -63 -30 -93 -11 -93 -11 -126 -33 -16 -11 -42 -26 -59 -34 -16 -8 -61 -45 -98 -83 -50 -50 -72 -66 -81 -58 -9 7 -22 -9 -50 -64 -21 -41 -50 -82 -64 -91 l-25 -16 5 45 c16 142 166 333 314 399 138 62 236 69 346 27z m-6242 17 c0 -2 -8 -10 -17 -17 -16 -13 -17 -12 -4 4 13 16 21 21 21 13z m1103 -98 c-3 -57 -5 -106 -6 -109 -1 -3 -70 29 -153 72 l-152 76 97 11 c53 6 121 20 151 31 30 11 58 20 61 20 3 1 4 -45 2 -101z m-1096 37 c-15 -16 -19 -13 -11 9 3 9 10 13 15 10 5 -3 3 -11 -4 -19z m3578 5 c3 -5 1 -10 -4 -10 -6 0 -11 5 -11 10 0 6 2 10 4 10 3 0 8 -4 11 -10z m-3465 -4 c0 -3 -4 -8 -10 -11 -5 -3 -10 -1 -10 4 0 6 5 11 10 11 6 0 10 -2 10 -4z m3507 -38 c-3 -8 -6 -5 -6 6 -1 11 2 17 5 13 3 -3 4 -12 1 -19z m-3500 -10 c-3 -8 -6 -5 -6 6 -1 11 2 17 5 13 3 -3 4 -12 1 -19z m74 -5 c13 -16 12 -17 -3 -4 -10 7 -18 15 -18 17 0 8 8 3 21 -13z m-44 -25 c-3 -7 -5 -2 -5 12 0 14 2 19 5 13 2 -7 2 -19 0 -25z m6123 -8 c30 -42 38 -136 16 -192 -19 -52 -58 -96 -100 -113 -38 -16 -46 -12 -46 23 0 20 9 33 34 49 47 30 69 83 64 149 -3 32 -12 62 -22 73 -17 18 -17 20 1 30 26 15 29 14 53 -19z m-6080 0 c0 -5 -5 -10 -11 -10 -5 0 -7 5 -4 10 3 6 8 10 11 10 2 0 4 -4 4 -10z m-210 -25 c11 -13 10 -14 -4 -9 -9 3 -16 10 -16 15 0 13 6 11 20 -6z m212 -43 c17 -35 17 -36 0 -12 -9 13 -25 33 -34 42 -10 10 -18 20 -18 23 0 16 38 -22 52 -53z m-77 28 c3 -5 1 -10 -4 -10 -6 0 -11 5 -11 10 0 6 2 10 4 10 3 0 8 -4 11 -10z m105 -15 c0 -8 -2 -15 -4 -15 -2 0 -6 7 -10 15 -3 8 -1 15 4 15 6 0 10 -7 10 -15z m70 5 c0 -5 -2 -10 -4 -10 -3 0 -8 5 -11 10 -3 6 -1 10 4 10 6 0 11 -4 11 -10z m2251 -3 c-1 -12 -15 -9 -19 4 -3 6 1 10 8 8 6 -3 11 -8 11 -12z m26 -9 c-3 -8 -6 -5 -6 6 -1 11 2 17 5 13 3 -3 4 -12 1 -19z m-2418 -9 c-16 -10 -23 -4 -14 10 3 6 11 8 17 5 6 -4 5 -9 -3 -15z m106 11 c-3 -5 -11 -10 -16 -10 -6 0 -7 5 -4 10 3 6 11 10 16 10 6 0 7 -4 4 -10z m35 -20 c0 -5 -2 -10 -4 -10 -3 0 -8 5 -11 10 -3 6 -1 10 4 10 6 0 11 -4 11 -10z m1727 -22 c-3 -8 -6 -5 -6 6 -1 11 2 17 5 13 3 -3 4 -12 1 -19z m-1812 -37 c-6 -5 -25 10 -25 20 0 5 6 4 14 -3 8 -7 12 -15 11 -17z m1780 19 c3 -5 -3 -10 -14 -10 -12 0 -21 5 -21 10 0 6 6 10 14 10 8 0 18 -4 21 -10z m795 -6 c0 -2 -7 -4 -15 -4 -8 0 -15 4 -15 10 0 5 7 7 15 4 8 -4 15 -8 15 -10z m-2500 -9 c-7 -9 -15 -13 -17 -11 -7 7 7 26 19 26 6 0 6 -6 -2 -15z m2297 8 c-17 -4 -17 -6 -2 -17 16 -12 16 -13 0 -29 -9 -10 -22 -14 -28 -10 -8 5 -6 9 6 11 9 2 17 8 17 14 0 5 -7 8 -15 4 -9 -3 -15 0 -15 8 0 15 16 25 40 24 9 0 8 -2 -3 -5z m-2327 -7 c0 -3 -4 -8 -10 -11 -5 -3 -10 -1 -10 4 0 6 5 11 10 11 6 0 10 -2 10 -4z m80 -6 c0 -5 -8 -10 -17 -10 -15 0 -16 2 -3 10 19 12 20 12 20 0z m1655 -20 c-3 -5 -10 -10 -16 -10 -5 0 -9 5 -9 10 0 6 7 10 16 10 8 0 12 -4 9 -10z m-1705 -10 c0 -5 -12 -10 -27 -9 -25 0 -26 1 -8 9 27 12 35 12 35 0z m25 0 c3 -5 1 -10 -4 -10 -6 0 -11 5 -11 10 0 6 2 10 4 10 3 0 8 -4 11 -10z m115 0 c0 -5 -4 -10 -10 -10 -5 0 -10 5 -10 10 0 6 5 10 10 10 6 0 10 -4 10 -10z m1561 -33 c-13 -13 -26 -3 -16 12 3 6 11 8 17 5 6 -4 6 -10 -1 -17z m-1598 0 c4 3 7 1 7 -5 0 -14 -2 -14 -24 -6 -9 3 -16 11 -16 16 0 7 5 6 13 -1 8 -6 17 -8 20 -4z m57 5 c0 -13 -12 -22 -22 -16 -10 6 -1 24 13 24 5 0 9 -4 9 -8z m-140 -6 c0 -3 -4 -8 -10 -11 -5 -3 -10 -1 -10 4 0 6 5 11 10 11 6 0 10 -2 10 -4z m35 -6 c3 -5 2 -10 -4 -10 -5 0 -13 5 -16 10 -3 6 -2 10 4 10 5 0 13 -4 16 -10z m140 0 c3 -5 -1 -10 -9 -10 -9 0 -16 5 -16 10 0 6 4 10 9 10 6 0 13 -4 16 -10z m1505 -26 c0 -8 -5 -12 -10 -9 -6 4 -8 11 -5 16 9 14 15 11 15 -7z m-1660 -4 c0 -5 -4 -10 -10 -10 -5 0 -10 5 -10 10 0 6 5 10 10 10 6 0 10 -4 10 -10z m65 0 c-3 -5 -11 -10 -16 -10 -6 0 -7 5 -4 10 3 6 11 10 16 10 6 0 7 -4 4 -10z m40 0 c3 -5 2 -10 -4 -10 -5 0 -13 5 -16 10 -3 6 -2 10 4 10 5 0 13 -4 16 -10z m85 0 c0 -5 -4 -10 -10 -10 -5 0 -10 5 -10 10 0 6 5 10 10 10 6 0 10 -4 10 -10z m6060 -27 c-11 -17 -11 -17 -6 0 3 10 6 24 7 30 0 9 2 9 5 0 3 -7 0 -20 -6 -30z m-6155 -3 c3 -5 1 -10 -4 -10 -6 0 -11 5 -11 10 0 6 2 10 4 10 3 0 8 -4 11 -10z m-35 -10 c0 -5 -4 -10 -10 -10 -5 0 -10 5 -10 10 0 6 5 10 10 10 6 0 10 -4 10 -10z m100 0 c0 -5 -4 -10 -10 -10 -5 0 -10 5 -10 10 0 6 5 10 10 10 6 0 10 -4 10 -10z m35 0 c3 -5 1 -10 -4 -10 -6 0 -11 5 -11 10 0 6 2 10 4 10 3 0 8 -4 11 -10z m45 0 c0 -5 -4 -10 -10 -10 -5 0 -10 5 -10 10 0 6 5 10 10 10 6 0 10 -4 10 -10z m19 -42 c-12 -5 -24 -6 -27 -3 -3 3 0 5 6 5 7 0 12 7 12 16 0 14 2 14 16 3 14 -12 13 -14 -7 -21z m4611 10 c27 -17 31 -23 18 -26 -10 -2 -18 -5 -18 -7 0 -2 16 -34 35 -72 21 -42 39 -98 47 -146 l13 -77 106 -51 c59 -27 147 -65 198 -82 88 -32 90 -33 71 -50 -11 -9 -29 -17 -40 -17 -35 0 -138 39 -300 112 -222 101 -568 210 -612 193 -7 -3 -21 -19 -30 -35 -9 -17 -25 -30 -35 -31 -12 -1 -10 -3 7 -8 14 -4 -68 -6 -181 -3 -228 5 -356 -5 -569 -44 -194 -36 -437 -99 -595 -154 -360 -126 -605 -232 -826 -358 -47 -27 -58 -30 -63 -17 -3 8 -1 15 4 15 6 0 10 7 10 16 0 8 5 12 10 9 11 -7 12 0 4 32 -5 19 -10 21 -25 12 -11 -5 -19 -6 -19 0 0 5 7 12 16 15 8 3 13 12 9 18 -3 7 2 3 11 -9 25 -34 47 -30 39 7 -5 23 -3 30 8 30 8 0 18 7 21 16 5 13 9 14 21 4 12 -10 15 -10 15 3 0 9 9 19 21 22 11 4 18 9 15 12 -2 3 -31 -9 -64 -25 -33 -17 -63 -28 -66 -25 -3 4 -6 1 -6 -6 0 -8 -7 -11 -15 -7 -9 3 -15 0 -15 -10 0 -11 -6 -13 -20 -9 -14 4 -20 2 -20 -9 0 -9 -6 -13 -14 -10 -8 3 -34 -5 -58 -17 -23 -13 -45 -24 -48 -24 -27 -7 -60 -27 -60 -36 0 -6 -6 -9 -12 -6 -21 7 -272 -128 -412 -221 -132 -88 -214 -150 -277 -209 l-36 -34 -1 32 c0 18 4 41 9 51 6 12 6 18 -1 18 -5 0 -10 -4 -10 -10 0 -5 -5 -10 -11 -10 -5 0 -7 5 -4 10 3 6 -1 13 -10 16 -14 6 -13 9 6 30 12 13 26 21 32 17 6 -3 7 -1 4 5 -14 22 272 214 472 316 58 30 153 75 211 101 58 26 157 71 220 100 303 140 871 337 1224 425 363 92 451 104 756 104 236 1 277 -1 375 -21 122 -25 285 -76 407 -129 l81 -34 -5 53 c-6 71 -49 142 -114 185 -57 39 -60 44 -39 66 24 23 93 20 135 -6z m1365 -8 c-4 -12 -9 -19 -12 -17 -3 3 -2 15 2 27 4 12 9 19 12 17 3 -3 2 -15 -2 -27z m-6155 10 c0 -5 -4 -10 -10 -10 -5 0 -10 5 -10 10 0 6 5 10 10 10 6 0 10 -4 10 -10z m56 -4 c8 -8 14 -19 14 -25 0 -6 9 -11 20 -11 26 0 26 -17 0 -25 -25 -8 -58 14 -39 25 15 10 3 30 -17 30 -8 0 -12 -4 -9 -10 3 -5 1 -10 -4 -10 -13 0 -13 3 -5 24 8 20 21 20 40 2z m74 -6 c-24 -15 -36 -11 -14 4 10 8 21 12 24 10 2 -3 -2 -9 -10 -14z m1445 10 c3 -5 1 -10 -4 -10 -6 0 -11 5 -11 10 0 6 2 10 4 10 3 0 8 -4 11 -10z m-1345 -10 c0 -5 -4 -10 -10 -10 -5 0 -10 5 -10 10 0 6 5 10 10 10 6 0 10 -4 10 -10z m-80 -30 c0 -5 -4 -10 -10 -10 -5 0 -10 5 -10 10 0 6 5 10 10 10 6 0 10 -4 10 -10z m55 0 c3 -5 -1 -10 -10 -10 -9 0 -13 5 -10 10 3 6 8 10 10 10 2 0 7 -4 10 -10z m35 -10 c0 -5 -2 -10 -4 -10 -3 0 -8 5 -11 10 -3 6 -1 10 4 10 6 0 11 -4 11 -10z m40 6 c0 -3 -4 -8 -10 -11 -5 -3 -10 -1 -10 4 0 6 5 11 10 11 6 0 10 -2 10 -4z m1300 0 c0 -3 -4 -8 -10 -11 -5 -3 -10 -1 -10 4 0 6 5 11 10 11 6 0 10 -2 10 -4z m-35 -16 c3 -5 -1 -10 -10 -10 -9 0 -13 5 -10 10 3 6 8 10 10 10 2 0 7 -4 10 -10z m-1405 -22 c0 -9 3 -8 10 2 5 8 12 11 17 6 4 -4 0 -12 -10 -17 -9 -6 -17 -17 -17 -25 0 -8 -5 -12 -10 -9 -8 5 -8 11 0 20 8 10 8 15 -1 21 -7 4 -18 -1 -26 -11 -7 -11 -13 -14 -13 -9 0 14 22 34 37 34 7 0 13 -6 13 -12z m60 2 c0 -5 -4 -10 -10 -10 -5 0 -10 5 -10 10 0 6 5 10 10 10 6 0 10 -4 10 -10z m40 0 c0 -5 -4 -10 -10 -10 -5 0 -10 5 -10 10 0 6 5 10 10 10 6 0 10 -4 10 -10z m77 -16 c-9 -9 -28 6 -21 18 4 6 10 6 17 -1 6 -6 8 -13 4 -17z m1253 16 c0 -5 -5 -10 -11 -10 -5 0 -7 5 -4 10 3 6 8 10 11 10 2 0 4 -4 4 -10z m-1377 -32 c3 -10 7 -10 20 1 24 19 21 5 -3 -19 -16 -16 -20 -17 -20 -5 0 8 -5 15 -11 15 -5 0 -7 -5 -3 -12 4 -7 3 -8 -4 -4 -7 4 -12 1 -13 -6 0 -10 -2 -10 -6 -1 -4 12 15 42 29 43 3 0 8 -6 11 -12z m77 -8 c0 -5 -4 -10 -10 -10 -5 0 -10 5 -10 10 0 6 5 10 10 10 6 0 10 -4 10 -10z m85 0 c-3 -5 -10 -10 -16 -10 -5 0 -9 5 -9 10 0 6 7 10 16 10 8 0 12 -4 9 -10z m5391 -70 c8 0 14 -4 14 -8 0 -9 -80 -72 -92 -72 -5 0 -17 19 -28 42 -18 41 -18 42 2 78 l21 36 35 -38 c19 -21 41 -38 48 -38z m-5801 50 c10 -11 16 -20 13 -20 -3 0 -13 9 -23 20 -10 11 -16 20 -13 20 3 0 13 -9 23 -20z m162 -12 c-3 -7 -5 -2 -5 12 0 14 2 19 5 13 2 -7 2 -19 0 -25z m119 -3 c-3 -8 -1 -15 4 -15 6 0 10 5 10 10 0 6 5 10 10 10 19 0 10 -21 -12 -29 -13 -5 -25 -7 -26 -6 -5 5 8 45 15 45 3 0 3 -7 -1 -15z m74 -5 c0 -5 -4 -10 -10 -10 -5 0 -10 5 -10 10 0 6 5 10 10 10 6 0 10 -4 10 -10z m40 0 c0 -5 -4 -10 -10 -10 -5 0 -10 5 -10 10 0 6 5 10 10 10 6 0 10 -4 10 -10z m40 0 c0 -5 -4 -10 -10 -10 -5 0 -10 5 -10 10 0 6 5 10 10 10 6 0 10 -4 10 -10z m1457 2 c24 -15 -27 -110 -60 -112 -5 0 -27 -16 -50 -35 -22 -19 -43 -32 -46 -29 -3 4 0 9 7 11 28 10 61 59 72 105 14 57 44 81 77 60z m-1552 -32 c3 -5 1 -10 -4 -10 -6 0 -11 5 -11 10 0 6 2 10 4 10 3 0 8 -4 11 -10z m40 0 c3 -5 1 -10 -4 -10 -6 0 -11 5 -11 10 0 6 2 10 4 10 3 0 8 -4 11 -10z m45 -10 c0 -5 -4 -10 -10 -10 -5 0 -10 5 -10 10 0 6 5 10 10 10 6 0 10 -4 10 -10z m-133 -6 c-3 -3 -12 -4 -19 -1 -8 3 -5 6 6 6 11 1 17 -2 13 -5z m83 -8 c0 -3 -4 -8 -10 -11 -5 -3 -10 -1 -10 4 0 6 5 11 10 11 6 0 10 -2 10 -4z m120 -6 c0 -5 -4 -10 -10 -10 -5 0 -10 5 -10 10 0 6 5 10 10 10 6 0 10 -4 10 -10z m-161 -21 c-16 -10 -23 -4 -14 10 3 6 11 8 17 5 6 -4 5 -9 -3 -15z m71 11 c0 -5 -4 -10 -10 -10 -5 0 -10 5 -10 10 0 6 5 10 10 10 6 0 10 -4 10 -10z m40 -10 c0 -5 -5 -10 -11 -10 -5 0 -7 5 -4 10 3 6 8 10 11 10 2 0 4 -4 4 -10z m37 -16 c-3 -3 -12 -4 -19 -1 -8 3 -5 6 6 6 11 1 17 -2 13 -5z m33 -4 c0 -5 -5 -10 -11 -10 -5 0 -7 5 -4 10 3 6 8 10 11 10 2 0 4 -4 4 -10z m-85 -20 c-3 -5 -11 -10 -16 -10 -6 0 -7 5 -4 10 3 6 11 10 16 10 6 0 7 -4 4 -10z m-254 -17 c13 -16 12 -17 -3 -4 -17 13 -22 21 -14 21 2 0 10 -8 17 -17z m289 7 c0 -5 -2 -10 -4 -10 -3 0 -8 5 -11 10 -3 6 -1 10 4 10 6 0 11 -4 11 -10z m575 0 c3 -5 1 -10 -4 -10 -6 0 -11 5 -11 10 0 6 2 10 4 10 3 0 8 -4 11 -10z m-535 -4 c0 -3 -4 -8 -10 -11 -5 -3 -10 -1 -10 4 0 6 5 11 10 11 6 0 10 -2 10 -4z m40 -6 c0 -5 -4 -10 -10 -10 -5 0 -10 5 -10 10 0 6 5 10 10 10 6 0 10 -4 10 -10z m-100 -20 c0 -5 -5 -10 -11 -10 -5 0 -7 5 -4 10 3 6 8 10 11 10 2 0 4 -4 4 -10z m115 -10 c3 -5 1 -10 -4 -10 -6 0 -11 5 -11 10 0 6 2 10 4 10 3 0 8 -4 11 -10z m440 0 c-3 -5 -12 -10 -18 -10 -7 0 -6 4 3 10 19 12 23 12 15 0z m-35 -10 c0 -5 -2 -10 -4 -10 -3 0 -8 5 -11 10 -3 6 -1 10 4 10 6 0 11 -4 11 -10z m457 -20 c-6 -16 -15 -30 -19 -30 -4 0 -8 -6 -8 -14 0 -8 -10 -22 -22 -30 -12 -9 -19 -16 -14 -16 12 0 -34 -35 -59 -44 -37 -15 -60 -13 -78 5 -18 17 -17 17 20 12 31 -4 45 1 81 27 24 17 57 51 74 75 18 25 33 45 34 45 1 0 -3 -13 -9 -30z m-947 5 c0 -8 -4 -15 -10 -15 -5 0 -10 7 -10 15 0 8 5 15 10 15 6 0 10 -7 10 -15z m510 -9 c0 -2 -7 -7 -16 -10 -8 -3 -12 -2 -9 4 6 10 25 14 25 6z m-420 -46 c0 -5 -5 -10 -11 -10 -5 0 -7 5 -4 10 3 6 8 10 11 10 2 0 4 -4 4 -10z m130 -30 c24 -15 7 -19 -20 -5 -15 8 -19 14 -10 14 8 1 22 -3 30 -9z m-1220 -55 c16 -10 -28 -45 -56 -45 -28 0 -40 -16 -17 -24 12 -5 3 -14 -38 -39 -29 -18 -67 -51 -85 -74 -23 -30 -35 -38 -43 -30 -8 8 -11 8 -11 -1 0 -9 -15 -12 -50 -11 -28 2 -50 7 -50 13 0 23 63 118 101 156 52 50 108 71 181 66 31 -2 62 -7 68 -11z m5380 -133 c0 -2 -9 -16 -19 -30 -22 -31 -81 -69 -81 -52 0 20 62 86 81 86 11 0 19 -2 19 -4z m-2743 -134 c-3 -8 -6 -5 -6 6 -1 11 2 17 5 13 3 -3 4 -12 1 -19z m-2174 -24 c14 -5 14 -10 1 -47 -10 -27 -11 -43 -4 -45 24 -8 7 -18 -25 -14 -58 7 -101 -6 -140 -43 -24 -23 -46 -35 -65 -35 -16 0 -31 -6 -33 -12 -3 -7 -6 -2 -6 12 -1 48 50 122 109 157 53 32 121 43 163 27z m2064 -30 c2 -13 1 -15 -4 -4 -3 8 -11 19 -17 23 -7 6 -6 7 4 4 8 -2 16 -12 17 -23z m-57 -8 c0 -3 -4 -8 -10 -11 -5 -3 -10 -1 -10 4 0 6 5 11 10 11 6 0 10 -2 10 -4z m35 -14 c-3 -3 -11 0 -18 7 -9 10 -8 11 6 5 10 -3 15 -9 12 -12z m52 -14 c-3 -8 -6 -5 -6 6 -1 11 2 17 5 13 3 -3 4 -12 1 -19z m-86 -11 c-10 -9 -11 -8 -5 6 3 10 9 15 12 12 3 -3 0 -11 -7 -18z m0 -54 c-12 -20 -14 -14 -5 12 4 9 9 14 11 11 3 -2 0 -13 -6 -23z m-48 -57 c-33 -41 -53 -47 -28 -10 28 43 50 65 53 54 2 -6 -9 -26 -25 -44z" style="fill:red;"/>
<path d="M8510 6821 c0 -10 19 -25 25 -20 1 2 -3 10 -11 17 -8 7 -14 8 -14 3z" style="fill:red;"/>
<path d="M8512 6776 c7 -8 15 -12 17 -11 5 6 -10 25 -20 25 -5 0 -4 -6 3 -14z" style="fill:red;"/>
<path d="M8480 6601 c0 -10 30 -24 37 -17 3 2 -5 9 -16 16 -12 6 -21 7 -21 1z" style="fill:red;"/>
<path d="M8530 6575 c0 -8 5 -15 10 -15 6 0 10 7 10 15 0 8 -4 15 -10 15 -5 0 -10 -7 -10 -15z" style="fill:red;"/>
<path d="M8480 6564 c0 -8 5 -12 10 -9 6 4 8 11 5 16 -9 14 -15 11 -15 -7z" style="fill:red;"/>
<path d="M8516 6510 c-19 -6 -19 -7 -1 -13 20 -8 29 -4 24 11 -2 5 -13 6 -23 2z" style="fill:red;"/>
<path d="M8510 6280 c0 -5 4 -10 9 -10 6 0 13 5 16 10 3 6 -1 10 -9 10 -9 0 -16 -4 -16 -10z" style="fill:red;"/>
<path d="M8490 6260 c0 -5 7 -10 16 -10 8 0 12 5 9 10 -3 6 -10 10 -16 10 -5 0 -9 -4 -9 -10z" style="fill:red;"/>
<path d="M8517 6214 c6 -15 23 -19 23 -5 0 5 -7 11 -14 14 -10 4 -13 1 -9 -9z" style="fill:red;"/>
<path d="M8550 6220 c0 -5 5 -10 10 -10 6 0 10 5 10 10 0 6 -4 10 -10 10 -5 0 -10 -4 -10 -10z" style="fill:red;"/>
<path d="M8531 6154 c0 -11 3 -14 6 -6 3 7 2 16 -1 19 -3 4 -6 -2 -5 -13z" style="fill:red;"/>
<path d="M8520 6120 c0 -5 4 -10 9 -10 6 0 13 5 16 10 3 6 -1 10 -9 10 -9 0 -16 -4 -16 -10z" style="fill:red;"/>
<path d="M8510 6090 c0 -5 5 -10 10 -10 6 0 10 5 10 10 0 6 -4 10 -10 10 -5 0 -10 -4 -10 -10z" style="fill:red;"/>
<path d="M8540 6071 c0 -5 7 -11 14 -14 10 -4 13 -1 9 9 -6 15 -23 19 -23 5z" style="fill:red;"/>
<path d="M8520 5969 c0 -5 9 -9 20 -9 11 0 20 2 20 4 0 2 -9 6 -20 9 -11 3 -20 1 -20 -4z" style="fill:red;"/>
<path d="M8500 5940 c0 -5 5 -10 10 -10 6 0 10 5 10 10 0 6 -4 10 -10 10 -5 0 -10 -4 -10 -10z" style="fill:red;"/>
<path d="M7920 6590 c-8 -5 -10 -10 -5 -10 6 0 17 5 25 10 8 5 11 10 5 10 -5 0 -17 -5 -25 -10z" style="fill:red;"/>
<path d="M7025 6370 c-3 -5 -1 -10 4 -10 6 0 11 5 11 10 0 6 -2 10 -4 10 -3 0 -8 -4 -11 -10z" style="fill:red;"/>
<path d="M7018 6333 c7 -3 16 -2 19 1 4 3 -2 6 -13 5 -11 0 -14 -3 -6 -6z" style="fill:red;"/>
<path d="M7008 6308 c5 -5 16 -8 23 -6 8 3 3 7 -10 11 -17 4 -21 3 -13 -5z" style="fill:red;"/>
<path d="M6990 6220 c0 -9 39 -25 45 -18 2 2 -7 8 -21 15 -13 6 -24 7 -24 3z" style="fill:red;"/>
<path d="M6952 5820 c0 -14 2 -19 5 -12 2 6 2 18 0 25 -3 6 -5 1 -5 -13z" style="fill:red;"/>
<path d="M6620 6420 c0 -5 5 -10 10 -10 6 0 10 5 10 10 0 6 -4 10 -10 10 -5 0 -10 -4 -10 -10z" style="fill:red;"/>
<path d="M6621 6374 c0 -11 3 -14 6 -6 3 7 2 16 -1 19 -3 4 -6 -2 -5 -13z" style="fill:red;"/>
<path d="M6617 6329 c7 -7 15 -10 18 -7 3 3 -2 9 -12 12 -14 6 -15 5 -6 -5z" style="fill:red;"/>
<path d="M6642 6304 c-11 -12 -9 -14 8 -14 11 0 20 4 20 9 0 17 -15 19 -28 5z" style="fill:red;"/>
<path d="M6580 6260 c0 -5 5 -10 11 -10 5 0 7 5 4 10 -3 6 -8 10 -11 10 -2 0 -4 -4 -4 -10z" style="fill:red;"/>
<path d="M6100 6140 c-9 -6 -10 -10 -3 -10 6 0 15 5 18 10 8 12 4 12 -15 0z" style="fill:red;"/>
<path d="M6125 6080 c-3 -5 1 -10 9 -10 9 0 16 5 16 10 0 6 -4 10 -9 10 -6 0 -13 -4 -16 -10z" style="fill:red;"/>
<path d="M6555 6080 c-3 -5 -2 -10 4 -10 5 0 13 5 16 10 3 6 2 10 -4 10 -5 0 -13 -4 -16 -10z" style="fill:red;"/>
<path d="M6135 6040 c3 -5 8 -10 11 -10 2 0 4 5 4 10 0 6 -5 10 -11 10 -5 0 -7 -4 -4 -10z" style="fill:red;"/>
<path d="M6100 6020 c-9 -6 -10 -10 -3 -10 6 0 15 5 18 10 8 12 4 12 -15 0z" style="fill:red;"/>
<path d="M6130 6010 c0 -5 5 -10 10 -10 6 0 10 5 10 10 0 6 -4 10 -10 10 -5 0 -10 -4 -10 -10z" style="fill:red;"/>
<path d="M6575 6010 c3 -5 8 -10 11 -10 2 0 4 5 4 10 0 6 -5 10 -11 10 -5 0 -7 -4 -4 -10z" style="fill:red;"/>
<path d="M6098 5983 c7 -3 16 -2 19 1 4 3 -2 6 -13 5 -11 0 -14 -3 -6 -6z" style="fill:red;"/>
<path d="M6130 5970 c0 -5 5 -10 10 -10 6 0 10 5 10 10 0 6 -4 10 -10 10 -5 0 -10 -4 -10 -10z" style="fill:red;"/>
<path d="M6030 5960 c0 -5 5 -10 11 -10 5 0 7 5 4 10 -3 6 -8 10 -11 10 -2 0 -4 -4 -4 -10z" style="fill:red;"/>
<path d="M6100 5950 c0 -5 5 -10 10 -10 6 0 10 5 10 10 0 6 -4 10 -10 10 -5 0 -10 -4 -10 -10z" style="fill:red;"/>
<path d="M6065 5940 c3 -5 8 -10 11 -10 2 0 4 5 4 10 0 6 -5 10 -11 10 -5 0 -7 -4 -4 -10z" style="fill:red;"/>
<path d="M6100 5920 c0 -5 5 -10 11 -10 5 0 7 5 4 10 -3 6 -8 10 -11 10 -2 0 -4 -4 -4 -10z" style="fill:red;"/>
<path d="M6557 5906 c-4 -10 -1 -13 9 -9 15 6 19 23 5 23 -5 0 -11 -7 -14 -14z" style="fill:red;"/>
<path d="M6084 5895 c36 -19 47 -19 22 0 -11 8 -27 15 -35 15 -9 0 -3 -7 13 -15z" style="fill:red;"/>
<path d="M6068 5873 c7 -3 16 -2 19 1 4 3 -2 6 -13 5 -11 0 -14 -3 -6 -6z" style="fill:red;"/>
<path d="M6030 5859 c0 -5 5 -7 10 -4 6 3 10 8 10 11 0 2 -4 4 -10 4 -5 0 -10 -5 -10 -11z" style="fill:red;"/>
<path d="M6100 5860 c0 -5 5 -10 10 -10 6 0 10 5 10 10 0 6 -4 10 -10 10 -5 0 -10 -4 -10 -10z" style="fill:red;"/>
<path d="M6060 5789 c0 -5 5 -7 10 -4 6 3 10 8 10 11 0 2 -4 4 -10 4 -5 0 -10 -5 -10 -11z" style="fill:red;"/>
<path d="M6065 5760 c3 -5 8 -10 11 -10 2 0 4 5 4 10 0 6 -5 10 -11 10 -5 0 -7 -4 -4 -10z" style="fill:red;"/>
<path d="M6070 5730 c0 -5 5 -10 10 -10 6 0 10 5 10 10 0 6 -4 10 -10 10 -5 0 -10 -4 -10 -10z" style="fill:red;"/>
<path d="M5305 5810 c-3 -5 -1 -10 4 -10 6 0 11 5 11 10 0 6 -2 10 -4 10 -3 0 -8 -4 -11 -10z" style="fill:red;"/>
<path d="M5320 5779 c0 -5 5 -7 10 -4 6 3 10 8 10 11 0 2 -4 4 -10 4 -5 0 -10 -5 -10 -11z" style="fill:red;"/>
<path d="M5328 5643 c-10 -2 -18 -9 -18 -14 0 -6 10 -5 23 2 37 20 36 23 -5 12z" style="fill:red;"/>
<path d="M4298 5583 c-10 -2 -18 -9 -18 -14 0 -6 10 -5 23 2 37 20 36 23 -5 12z" style="fill:red;"/>
<path d="M4296 5541 c-4 -7 -5 -15 -2 -18 9 -9 19 4 14 18 -4 11 -6 11 -12 0z" style="fill:red;"/>
<path d="M3700 5260 c0 -5 5 -10 10 -10 6 0 10 5 10 10 0 6 -4 10 -10 10 -5 0 -10 -4 -10 -10z" style="fill:red;"/>
<path d="M3660 5210 c0 -5 5 -10 10 -10 6 0 10 5 10 10 0 6 -4 10 -10 10 -5 0 -10 -4 -10 -10z" style="fill:red;"/>
<path d="M3695 5190 c4 -6 11 -8 16 -5 14 9 11 15 -7 15 -8 0 -12 -5 -9 -10z" style="fill:red;"/>
<path d="M3660 5170 c0 -5 5 -10 10 -10 6 0 10 5 10 10 0 6 -4 10 -10 10 -5 0 -10 -4 -10 -10z" style="fill:red;"/>
<path d="M3247 5153 c-4 -3 -7 -11 -7 -17 0 -6 5 -5 12 2 6 6 9 14 7 17 -3 3 -9 2 -12 -2z" style="fill:red;"/>
<path d="M3660 5130 c0 -5 5 -10 10 -10 6 0 10 5 10 10 0 6 -4 10 -10 10 -5 0 -10 -4 -10 -10z" style="fill:red;"/>
<path d="M3175 5100 c3 -5 8 -10 11 -10 2 0 4 5 4 10 0 6 -5 10 -11 10 -5 0 -7 -4 -4 -10z" style="fill:red;"/>
<path d="M3200 5080 c-12 -8 -11 -10 8 -10 12 0 22 5 22 10 0 13 -11 13 -30 0z" style="fill:red;"/>
<path d="M3190 5045 c17 -21 5 -31 -16 -14 -16 13 -16 12 -5 -8 14 -27 18 -28 38 -8 12 12 13 19 3 30 -7 8 -17 15 -22 15 -6 0 -5 -7 2 -15z" style="fill:red;"/>
<path d="M3655 5050 c3 -5 10 -10 16 -10 5 0 9 5 9 10 0 6 -7 10 -16 10 -8 0 -12 -4 -9 -10z" style="fill:red;"/>
<path d="M3095 5000 c10 -11 20 -18 23 -16 5 6 -23 36 -34 36 -4 0 1 -9 11 -20z" style="fill:red;"/>
<path d="M3145 4990 c-3 -5 1 -10 9 -10 9 0 16 5 16 10 0 6 -4 10 -9 10 -6 0 -13 -4 -16 -10z" style="fill:red;"/>
<path d="M3088 4963 c7 -3 16 -2 19 1 4 3 -2 6 -13 5 -11 0 -14 -3 -6 -6z" style="fill:red;"/>
<path d="M3130 4960 c0 -5 5 -10 10 -10 6 0 10 5 10 10 0 6 -4 10 -10 10 -5 0 -10 -4 -10 -10z" style="fill:red;"/>
<path d="M3100 4936 c0 -2 7 -6 15 -10 8 -3 15 -1 15 4 0 6 -7 10 -15 10 -8 0 -15 -2 -15 -4z" style="fill:red;"/>
<path d="M3108 4903 c6 -2 18 -2 25 0 6 3 1 5 -13 5 -14 0 -19 -2 -12 -5z" style="fill:red;"/>
<path d="M2010 5520 c0 -5 5 -10 10 -10 6 0 10 5 10 10 0 6 -4 10 -10 10 -5 0 -10 -4 -10 -10z" style="fill:red;"/>
<path d="M2120 5419 c0 -5 5 -7 10 -4 6 3 10 8 10 11 0 2 -4 4 -10 4 -5 0 -10 -5 -10 -11z" style="fill:red;"/>
<path d="M2745 4830 c-3 -5 -1 -10 4 -10 6 0 11 5 11 10 0 6 -2 10 -4 10 -3 0 -8 -4 -11 -10z" style="fill:red;"/>
<path d="M4280 4421 c0 -6 4 -13 10 -16 6 -3 7 1 4 9 -7 18 -14 21 -14 7z" style="fill:red;"/>
<path d="M3225 3970 c3 -5 8 -10 11 -10 2 0 4 5 4 10 0 6 -5 10 -11 10 -5 0 -7 -4 -4 -10z" style="fill:red;"/>
<path d="M1280 4480 c0 -5 9 -10 20 -10 11 0 20 5 20 10 0 6 -9 10 -20 10 -11 0 -20 -4 -20 -10z" style="fill:red;"/>
<path d="M6915 4490 c-3 -6 1 -7 9 -4 18 7 21 14 7 14 -6 0 -13 -4 -16 -10z" style="fill:red;"/>
<path d="M5912 7253 c-7 -3 -18 -16 -23 -30 -23 -62 61 -102 98 -47 15 24 15 29 2 53 -14 25 -48 36 -77 24z" style="fill:red;"/>
<path d="M5845 4170 c-78 -11 -169 -31 -335 -75 -181 -47 -252 -53 -305 -26 -49 26 -62 26 -75 2 -16 -32 -12 -56 16 -82 24 -23 32 -24 152 -23 120 0 139 3 322 51 271 71 319 77 523 70 184 -7 261 -19 402 -67 49 -17 101 -30 117 -30 31 0 62 37 52 63 -8 21 -84 50 -229 88 -116 31 -129 32 -350 35 -126 1 -257 -1 -290 -6z" style="fill:red;"/>
<path d="M7310 3893 l-55 -4 3 -279 3 -280 48 0 c27 0 56 -3 65 -6 13 -5 15 28 13 285 -1 187 -6 290 -12 289 -5 -1 -35 -3 -65 -5z" style="fill:red;"/>
<path d="M6695 3873 c13 -30 25 -229 24 -387 l-1 -150 64 -2 63 -2 -3 146 -3 147 71 -120 c39 -66 79 -126 88 -132 9 -7 35 -13 59 -13 l42 0 3 265 3 265 -65 0 -65 0 3 -132 2 -133 -72 132 -73 133 -74 0 c-66 0 -72 -2 -66 -17z" style="fill:red;"/>
<path d="M7806 3863 c9 -21 22 -153 23 -232 1 -46 -1 -52 -14 -41 -8 7 -15 16 -15 21 0 13 -126 202 -147 221 -16 14 -123 36 -123 25 0 -3 7 -18 15 -33 20 -38 22 -463 3 -482 -9 -9 -2 -12 33 -12 24 0 54 -3 66 -6 22 -6 22 -5 25 122 l3 128 80 -124 c44 -68 82 -127 85 -130 3 -4 30 -10 61 -14 l56 -7 -9 51 c-5 28 -8 156 -6 285 2 188 0 236 -10 240 -8 3 -41 5 -74 5 -54 0 -59 -2 -52 -17z" style="fill:red;"/>
<path d="M8275 3870 c-66 -9 -111 -44 -142 -108 -24 -48 -28 -72 -32 -161 -4 -130 10 -200 51 -247 89 -101 225 -99 295 5 20 29 23 47 23 130 0 53 3 107 7 120 5 22 4 23 -18 18 -13 -4 -61 -10 -107 -13 l-83 -7 3 -51 3 -51 38 -3 c31 -3 37 -7 37 -25 0 -33 -28 -67 -54 -67 -44 0 -58 21 -69 111 -13 104 -4 169 28 203 29 32 57 33 103 4 l35 -21 39 41 39 42 -36 31 c-43 38 -106 57 -160 49z" style="fill:red;"/>
<path d="M5821 3860 c-75 -18 -123 -81 -123 -159 0 -66 23 -101 109 -167 77 -59 88 -75 73 -104 -21 -40 -79 -37 -98 5 -17 37 -52 32 -79 -11 -29 -44 -29 -46 2 -83 54 -64 169 -78 239 -30 46 31 68 72 69 128 1 68 -33 122 -115 182 -84 61 -96 81 -68 109 23 23 48 21 89 -9 24 -17 25 -16 64 26 l39 43 -23 20 c-56 48 -117 65 -178 50z" style="fill:red;"/>
<path d="M6271 3848 c-84 -41 -121 -125 -121 -273 0 -145 30 -214 111 -255 103 -53 219 4 265 131 23 65 23 241 0 294 -48 111 -153 154 -255 103z m128 -126 c29 -55 19 -225 -15 -263 -9 -11 -30 -19 -46 -19 -40 0 -58 46 -58 144 0 80 8 113 35 139 22 23 72 22 84 -1z" style="fill:red;"/>
<path d="M5323 3843 c-55 -4 -63 -7 -67 -26 -32 -165 -97 -463 -112 -514 -5 -20 -3 -23 22 -23 16 0 46 3 67 6 32 6 37 10 37 33 0 41 11 49 77 56 l61 7 11 -38 c6 -22 11 -45 11 -53 0 -11 14 -12 68 -6 37 4 68 8 70 10 2 2 -1 12 -6 22 -9 16 -112 423 -127 501 -5 25 -11 32 -28 30 -12 -1 -50 -3 -84 -5z m52 -340 c-3 -7 -19 -13 -36 -13 l-31 0 6 48 c4 26 12 79 19 117 l12 70 17 -105 c9 -58 15 -111 13 -117z" style="fill:red;"/>
<path d="M4930 3830 c-25 -5 -74 -11 -110 -15 l-65 -6 2 -307 2 -307 33 3 c18 1 79 7 134 13 l102 12 4 61 c3 33 4 62 3 64 -1 1 -34 -4 -74 -13 -40 -8 -74 -15 -77 -15 -2 0 -4 29 -4 64 0 70 5 76 65 76 28 0 33 4 39 31 3 17 6 44 6 59 0 27 -1 27 -42 19 -70 -13 -68 -15 -68 60 l0 68 57 12 c31 6 66 11 78 11 18 0 24 7 29 38 12 76 10 82 -31 81 -21 -1 -58 -5 -83 -9z" style="fill:red;"/>
<path d="M4402 3779 c-65 -33 -87 -71 -87 -149 0 -74 11 -94 83 -150 105 -82 113 -91 110 -124 -3 -29 -6 -31 -44 -34 -35 -3 -45 1 -62 22 -25 33 -41 32 -69 -4 -35 -44 -36 -54 -3 -87 46 -47 94 -66 151 -61 94 9 159 78 159 167 0 66 -31 113 -119 180 -87 67 -103 92 -75 122 24 26 56 24 87 -6 l25 -26 37 35 c21 20 35 42 33 52 -1 9 -20 30 -40 47 -51 41 -125 48 -186 16z" style="fill:red;"/>
<path d="M6630 3102 l-105 -16 0 -328 c0 -212 4 -328 10 -328 6 1 72 9 148 19 93 12 142 22 148 32 5 8 9 33 9 57 l0 44 -67 -7 c-38 -3 -80 -9 -95 -11 l-28 -6 0 76 c0 84 -1 82 80 88 l35 3 3 58 3 58 -65 -7 -66 -7 0 76 0 75 38 6 c20 3 63 8 95 12 l57 6 0 37 c0 20 3 46 6 59 6 21 4 22 -47 21 -30 -1 -101 -9 -159 -17z" style="fill:red;"/>
<path d="M7115 3105 c-77 -27 -125 -113 -108 -195 9 -44 63 -119 103 -143 14 -9 44 -32 68 -52 35 -31 42 -42 42 -74 0 -46 -14 -61 -58 -61 -28 0 -35 5 -47 34 -14 34 -45 53 -65 41 -6 -4 -19 -23 -29 -44 -18 -34 -18 -40 -4 -69 8 -17 36 -45 61 -62 87 -57 200 -31 251 60 19 34 23 52 19 100 -5 76 -35 121 -138 206 -44 36 -80 73 -80 83 0 26 29 61 51 61 11 0 31 -11 45 -25 14 -14 31 -25 37 -25 7 0 31 18 52 40 l39 40 -38 39 c-57 58 -124 73 -201 46z" style="fill:red;"/>
<path d="M4025 3081 c-102 -47 -134 -154 -80 -269 l25 -54 -29 -27 c-82 -77 -90 -196 -18 -278 76 -86 204 -96 284 -21 l22 21 32 -27 c42 -36 93 -33 123 7 l21 28 -53 46 c-28 24 -52 49 -52 54 0 5 20 35 45 67 44 56 57 98 32 107 -7 3 -42 -1 -77 -8 -62 -12 -65 -14 -65 -42 -1 -44 -17 -40 -59 15 l-38 50 55 60 c60 64 74 102 64 167 -4 20 -17 47 -29 61 -29 31 -94 62 -133 62 -16 0 -48 -9 -70 -19z m103 -113 c21 -21 13 -53 -19 -84 -30 -28 -31 -28 -45 -10 -40 55 18 140 64 94z m-68 -329 c7 -11 28 -38 47 -60 29 -32 33 -42 23 -54 -18 -22 -76 -19 -100 5 -22 22 -26 66 -8 105 14 30 24 32 38 4z" style="fill:red;"/>
<path d="M6172 3039 c-41 -12 -111 -80 -135 -132 -43 -89 -47 -279 -8 -355 29 -58 82 -99 136 -107 87 -14 147 13 211 91 l33 40 -53 36 -54 36 -21 -29 c-46 -62 -112 -64 -137 -4 -16 38 -18 149 -5 209 5 21 22 51 37 67 37 38 74 38 107 0 l24 -29 49 49 48 49 -25 26 c-50 55 -130 75 -207 53z" style="fill:red;"/>
<path d="M5776 3001 l-48 -6 3 -125 c2 -69 3 -194 1 -278 l-3 -154 43 7 c24 3 54 8 68 11 l25 4 0 275 c0 312 11 278 -89 266z" style="fill:red;"/>
<path d="M5342 2986 l-74 -11 2 -280 c0 -153 3 -281 5 -283 2 -3 33 -1 68 2 l64 7 -5 79 -4 79 43 11 c116 29 149 55 175 133 20 61 14 153 -13 199 -44 76 -97 89 -261 64z m140 -123 c28 -25 25 -97 -7 -128 -13 -14 -36 -25 -50 -25 -25 0 -25 1 -25 78 0 43 3 82 7 85 12 13 56 7 75 -10z" style="fill:red;"/>
<path d="M7623 2981 c-83 -38 -143 -122 -143 -200 0 -63 65 -141 119 -141 23 0 61 33 61 53 0 6 -18 25 -40 40 -46 33 -52 63 -21 113 41 67 169 86 243 34 59 -40 79 -80 90 -177 10 -96 19 -113 54 -113 42 0 58 39 51 131 -4 67 -10 87 -37 130 -37 57 -99 111 -153 134 -52 22 -171 19 -224 -4z" style="fill:red;"/>
<path d="M4894 2971 c-49 -30 -77 -77 -82 -138 -6 -70 22 -113 123 -187 79 -59 96 -88 77 -130 -21 -46 -101 -40 -124 9 -6 14 -15 25 -20 25 -15 0 -88 -62 -88 -75 0 -13 77 -89 107 -104 35 -18 112 -13 160 10 55 27 79 58 92 120 21 96 -14 159 -135 245 -66 47 -84 75 -64 99 18 22 74 19 95 -5 10 -11 22 -20 27 -20 16 0 78 52 78 65 0 22 -52 77 -87 91 -47 20 -122 18 -159 -5z" style="fill:red;"/>
<path d="M7712 2759 c27 -79 -22 -227 -107 -318 -25 -27 -76 -65 -114 -85 -126 -66 -238 -79 -446 -51 -141 19 -219 19 -327 0 -165 -29 -303 -77 -530 -184 -155 -73 -395 -161 -548 -201 -173 -46 -421 -67 -602 -51 -234 20 -402 62 -683 168 -376 143 -391 149 -660 218 -428 110 -622 220 -851 479 -33 38 -47 46 -75 46 -95 0 -171 -102 -171 -229 0 -84 16 -140 54 -185 32 -39 66 -47 92 -20 22 21 20 33 -14 78 -16 21 -32 57 -36 82 -7 51 9 129 36 164 l19 25 80 -87 c198 -211 425 -335 773 -423 270 -68 391 -107 656 -212 434 -171 559 -198 917 -197 190 1 251 5 349 23 210 38 414 110 811 286 300 132 429 155 715 124 146 -15 194 -17 256 -8 175 24 283 77 387 189 92 100 133 222 107 320 -15 57 -36 80 -71 80 -27 0 -28 -1 -17 -31z" style="fill:red;"/>
<path d="M5067 2098 c-9 -7 -19 -25 -22 -39 -5 -21 -1 -31 20 -47 25 -20 46 -20 73 1 20 16 14 64 -10 81 -27 19 -39 20 -61 4z" style="fill:red;"/>
<path d="M5343 2088 c-22 -29 -22 -48 1 -75 21 -24 27 -26 52 -18 23 8 30 17 32 43 2 18 -2 40 -9 48 -14 17 -63 18 -76 2z" style="fill:red;"/>
<path d="M6740 2072 c-56 -45 1 -136 59 -95 21 14 29 66 13 89 -14 22 -49 25 -72 6z" style="fill:red;"/>
<path d="M7036 2064 c-22 -21 -20 -50 4 -74 25 -25 52 -26 73 -2 49 54 -26 128 -77 76z" style="fill:red;"/>
<path d="M3826 1911 c-24 -26 -17 -60 16 -84 22 -17 32 -18 51 -10 54 25 37 113 -22 113 -15 0 -36 -9 -45 -19z" style="fill:red;"/>
</g>
</svg>